<svg xmlns="http://www.w3.org/2000/svg" viewBox="0 0 512 512">
  <defs>
    <linearGradient id="shieldGrad" x1="0%" y1="0%" x2="100%" y2="100%">
      <stop offset="0%" stop-color="#1E3A8A" /> <!-- blue-900 -->
      <stop offset="100%" stop-color="#1D4ED8" /> <!-- blue-700 -->
    </linearGradient>
    <linearGradient id="dropGrad" x1="0%" y1="0%" x2="0%" y2="100%">
      <stop offset="0%" stop-color="#F97316" /> <!-- orange-500 -->
      <stop offset="100%" stop-color="#C2410C" /> <!-- orange-700 -->
    </linearGradient>
  </defs>
  
  <!-- Outer Shield Background -->
  <path d="M256 32 C256 32 400 64 432 96 C432 256 400 384 256 480 C112 384 80 256 80 96 C112 64 256 32 256 32 Z" fill="url(#shieldGrad)" />
  
  <!-- Inner Shield Highlight -->
  <path d="M256 64 C256 64 368 88 392 112 C392 240 368 352 256 432 C144 352 120 240 120 112 C144 88 256 64 256 64 Z" fill="#0F172A" />
  
  <!-- Water Drop in Center -->
  <path d="M256 160 C256 160 176 256 176 312 C176 356.183 211.817 392 256 392 C300.183 392 336 356.183 336 312 C336 256 256 160 256 160 Z" fill="url(#dropGrad)" />
  
  <!-- Inner Drop Highlight (Reflection) -->
  <path d="M224 288 C224 288 240 224 256 208 C240 240 232 264 224 288 Z" fill="#FFFFFF" opacity="0.4" />
</svg>
